<svg width="300" height="300" viewBox="0 0 300 300" fill="none" xmlns="http://www.w3.org/2000/svg">
<rect width="300" height="300" fill="#97BA9E"/>
<path d="M145.123 201.288C143.715 201.288 142.515 200.928 141.523 200.208C140.547 199.488 139.795 198.48 139.267 197.184C138.755 195.872 138.499 194.352 138.499 192.624C138.499 190.88 138.755 189.36 139.267 188.064C139.795 186.752 140.555 185.736 141.547 185.016C142.539 184.28 143.731 183.912 145.123 183.912C146.931 183.912 148.371 184.408 149.443 185.4C150.515 186.376 151.139 187.704 151.315 189.384H148.507C148.363 188.504 148.003 187.776 147.427 187.2C146.867 186.608 146.091 186.312 145.099 186.312C143.835 186.312 142.851 186.872 142.147 187.992C141.443 189.112 141.091 190.656 141.091 192.624C141.091 194.576 141.443 196.112 142.147 197.232C142.851 198.336 143.835 198.888 145.099 198.888C146.123 198.888 146.907 198.624 147.451 198.096C147.995 197.552 148.347 196.84 148.507 195.96H151.315C151.059 197.608 150.411 198.912 149.371 199.872C148.331 200.816 146.915 201.288 145.123 201.288ZM159.418 201.288C158.282 201.288 157.266 201.056 156.37 200.592C155.49 200.128 154.794 199.424 154.282 198.48C153.77 197.52 153.514 196.312 153.514 194.856V184.2H156.058V195C156.058 196.28 156.362 197.272 156.97 197.976C157.578 198.664 158.41 199.008 159.466 199.008C160.522 199.008 161.354 198.664 161.962 197.976C162.57 197.272 162.874 196.28 162.874 195V184.2H165.418V194.856C165.418 196.312 165.154 197.52 164.626 198.48C164.098 199.424 163.378 200.128 162.466 200.592C161.57 201.056 160.554 201.288 159.418 201.288ZM174.024 201.288C172.84 201.288 171.8 201.072 170.904 200.64C170.024 200.208 169.328 199.592 168.816 198.792C168.32 197.992 168.064 197.04 168.048 195.936H170.736C170.752 196.784 171.04 197.512 171.6 198.12C172.176 198.712 172.976 199.008 174 199.008C174.944 199.008 175.68 198.792 176.208 198.36C176.736 197.912 177 197.336 177 196.632C177 196.04 176.84 195.552 176.52 195.168C176.216 194.768 175.736 194.416 175.08 194.112C174.424 193.792 173.576 193.464 172.536 193.128C171.144 192.68 170.12 192.064 169.464 191.28C168.808 190.48 168.48 189.504 168.48 188.352C168.48 187.024 168.96 185.952 169.92 185.136C170.88 184.32 172.2 183.912 173.88 183.912C175.512 183.912 176.824 184.336 177.816 185.184C178.808 186.016 179.32 187.176 179.352 188.664H176.64C176.64 188.264 176.528 187.88 176.304 187.512C176.08 187.128 175.76 186.816 175.344 186.576C174.928 186.32 174.416 186.192 173.808 186.192C173.056 186.176 172.424 186.36 171.912 186.744C171.4 187.112 171.144 187.616 171.144 188.256C171.144 189.04 171.456 189.656 172.08 190.104C172.704 190.536 173.72 190.984 175.128 191.448C176.008 191.736 176.784 192.088 177.456 192.504C178.144 192.904 178.68 193.424 179.064 194.064C179.464 194.688 179.664 195.488 179.664 196.464C179.664 197.36 179.44 198.176 178.992 198.912C178.544 199.632 177.896 200.208 177.048 200.64C176.216 201.072 175.208 201.288 174.024 201.288ZM186.975 201V186.48H182.463V184.2H194.031V186.48H189.519V201H186.975ZM202.638 201.288C201.278 201.288 200.102 200.936 199.11 200.232C198.118 199.528 197.358 198.528 196.83 197.232C196.302 195.936 196.038 194.392 196.038 192.6C196.038 190.808 196.302 189.264 196.83 187.968C197.358 186.672 198.118 185.672 199.11 184.968C200.102 184.264 201.278 183.912 202.638 183.912C204.014 183.912 205.19 184.264 206.166 184.968C207.158 185.672 207.918 186.672 208.446 187.968C208.974 189.264 209.238 190.808 209.238 192.6C209.238 194.392 208.974 195.936 208.446 197.232C207.918 198.528 207.158 199.528 206.166 200.232C205.19 200.936 204.014 201.288 202.638 201.288ZM202.638 198.888C203.838 198.888 204.806 198.352 205.542 197.28C206.278 196.192 206.646 194.632 206.646 192.6C206.646 190.568 206.278 189.016 205.542 187.944C204.806 186.856 203.838 186.312 202.638 186.312C201.422 186.312 200.446 186.856 199.71 187.944C198.99 189.016 198.63 190.568 198.63 192.6C198.63 194.632 198.99 196.192 199.71 197.28C200.446 198.352 201.422 198.888 202.638 198.888ZM210.86 201V184.2H213.548L217.028 191.784L220.508 184.2H223.196V201H220.772V189.048L218.036 195.048H216.02L213.284 189.072V201H210.86ZM226.139 201V184.2H236.867V186.48H228.683V191.376H236.147V193.632H228.683V198.72H236.867V201H226.139ZM240.409 201V184.2H245.905C247.217 184.2 248.297 184.424 249.145 184.872C250.009 185.32 250.649 185.928 251.065 186.696C251.497 187.448 251.713 188.304 251.713 189.264C251.713 190.352 251.433 191.32 250.873 192.168C250.329 193 249.489 193.608 248.353 193.992L251.881 201H248.929L245.713 194.352H242.953V201H240.409ZM242.953 192.048H245.761C246.913 192.048 247.753 191.792 248.281 191.28C248.825 190.768 249.097 190.096 249.097 189.264C249.097 188.416 248.833 187.744 248.305 187.248C247.777 186.736 246.921 186.48 245.737 186.48H242.953V192.048Z" fill="#397745"/>
<path fill-rule="evenodd" clip-rule="evenodd" d="M119.994 114.934C112.469 117.223 106.152 122.98 103.996 129.513C102.799 133.139 103.077 143.237 104.496 147.668C105.047 149.389 104.603 150.155 102.345 151.378C100.78 152.226 99.9129 152.938 100.417 152.96C101.837 153.022 113.967 146.171 119.143 142.384C121.697 140.515 124.061 137.894 124.396 136.56C125.571 131.877 133 132.546 133 137.335C133 140.482 131.164 142 127.359 142C125.576 142 123.837 142.454 123.494 143.01C123.151 143.565 119.524 145.856 115.435 148.1C111.346 150.345 108 152.567 108 153.039C108 154.489 114.276 158.68 118.5 160.051C123.458 161.66 133.103 161.686 138.763 160.106C148.21 157.469 154.251 148.545 154.186 137.324C154.121 126.044 148.693 118.518 138.386 115.416C133.388 113.911 124.151 113.67 119.994 114.934ZM58.9999 118.392C58.9999 121.216 59.4379 121.893 61.6179 122.44C63.4369 122.897 64.8379 122.552 66.2119 121.308C68.1259 119.576 68.2659 119.609 70.5949 122.315C73.0459 125.166 73.7299 128.431 72.0879 129.446C71.5859 129.756 72.1169 132.236 73.2669 134.958C75.3279 139.838 75.3329 140.035 73.6179 148.951C71.8459 158.162 72.0019 160 74.5589 160C75.6859 160 75.9999 158.363 75.9999 152.5V145H87.9999H99.9999V139V133H87.9999C78.1119 133 75.9999 132.741 75.9999 131.531C75.9999 130.334 78.2689 130.01 88.2499 129.781L100.5 129.5L100.794 122.25L101.088 115H80.0439H58.9999V118.392ZM157.75 115.552C157.338 115.982 157 126.158 157 138.167V160H166H175V154.945V149.89L179.75 150.195C184.295 150.487 184.608 150.705 187 155.247L189.5 159.994L197.763 159.997L206.025 160L202.518 153.036L199.011 146.072L201.506 142.397C204.934 137.345 205.052 127.856 201.747 122.952C197.417 116.527 194.743 115.736 175.637 115.228C166.212 114.977 158.162 115.123 157.75 115.552ZM209.667 115.667C209.3 116.033 209 126.158 209 138.167V160H230H251V153.531V147.062L238.75 146.781C228.653 146.549 226.5 146.236 226.5 145C226.5 143.768 228.597 143.45 238.25 143.218L250 142.937V137.468V132H237.917C228.695 132 225.932 131.704 226.248 130.75C226.543 129.863 230.193 129.419 238.832 129.219L251 128.938V121.969V115H230.667C219.483 115 210.033 115.3 209.667 115.667ZM65.6669 123.667C65.2999 124.033 64.9999 124.798 64.9999 125.367C64.9999 125.993 65.4659 125.934 66.1829 125.217C66.8339 124.566 67.1339 123.801 66.8499 123.517C66.5659 123.233 66.0329 123.3 65.6669 123.667ZM59.2259 127.125C59.9419 129.016 52.7759 136.598 51.1959 135.621C50.6549 135.287 49.4889 136.819 48.6059 139.027C45.2549 147.403 47.5249 155.123 54.2829 158.33C59.3729 160.746 61.9999 160.527 61.9999 157.688C61.9999 156.416 62.8969 153.519 63.9939 151.249C65.2149 148.722 66.0389 144.825 66.1209 141.194C66.2549 135.285 64.9229 132.173 60.0559 127.027C58.7649 125.662 58.6769 125.672 59.2259 127.125ZM184.435 129.975C186.212 130.651 187 131.693 187 133.368C187 136.227 185.387 137 179.418 137H175V133C175 129.11 175.094 129 178.435 129C180.324 129 183.024 129.439 184.435 129.975ZM67.1359 152.905C64.4829 159.073 64.4729 160 67.0589 160C68.1909 160 68.9049 159.655 68.6439 159.234C68.3839 158.812 68.5829 156.263 69.0859 153.568C69.5899 150.873 69.8379 148.504 69.6369 148.304C69.4369 148.103 68.3109 150.174 67.1359 152.905ZM94.9999 154.5C93.6249 155.286 92.9499 155.929 93.4999 155.929C94.0499 155.929 95.6249 155.286 96.9999 154.5C98.3749 153.714 99.0499 153.071 98.4999 153.071C97.9499 153.071 96.3749 153.714 94.9999 154.5Z" fill="#3B7744"/>
</svg>
