<svg width="300" height="300" viewBox="0 0 300 300" fill="none" xmlns="http://www.w3.org/2000/svg">
<rect width="300" height="300" fill="#97BA9E"/>
<path d="M138.907 201V184.2H141.595L145.075 191.784L148.555 184.2H151.243V201H148.819V189.048L146.083 195.048H144.067L141.331 189.072V201H138.907ZM154.186 201V184.2H164.914V186.48H156.73V191.376H164.194V193.632H156.73V198.72H164.914V201H154.186ZM168.456 201V184.2H173.952C175.264 184.2 176.344 184.424 177.192 184.872C178.056 185.32 178.696 185.928 179.112 186.696C179.544 187.448 179.76 188.304 179.76 189.264C179.76 190.352 179.48 191.32 178.92 192.168C178.376 193 177.536 193.608 176.4 193.992L179.928 201H176.976L173.76 194.352H171V201H168.456ZM171 192.048H173.808C174.96 192.048 175.8 191.792 176.328 191.28C176.872 190.768 177.144 190.096 177.144 189.264C177.144 188.416 176.88 187.744 176.352 187.248C175.824 186.736 174.968 186.48 173.784 186.48H171V192.048ZM188.295 201.288C186.887 201.288 185.687 200.928 184.695 200.208C183.719 199.488 182.967 198.48 182.439 197.184C181.927 195.872 181.671 194.352 181.671 192.624C181.671 190.88 181.927 189.36 182.439 188.064C182.967 186.752 183.727 185.736 184.719 185.016C185.711 184.28 186.903 183.912 188.295 183.912C190.103 183.912 191.543 184.408 192.615 185.4C193.687 186.376 194.311 187.704 194.487 189.384H191.679C191.535 188.504 191.175 187.776 190.599 187.2C190.039 186.608 189.263 186.312 188.271 186.312C187.007 186.312 186.023 186.872 185.319 187.992C184.615 189.112 184.263 190.656 184.263 192.624C184.263 194.576 184.615 196.112 185.319 197.232C186.023 198.336 187.007 198.888 188.271 198.888C189.295 198.888 190.079 198.624 190.623 198.096C191.167 197.552 191.519 196.84 191.679 195.96H194.487C194.231 197.608 193.583 198.912 192.543 199.872C191.503 200.816 190.087 201.288 188.295 201.288ZM196.422 201V184.2H198.965V191.16H206.31V184.2H208.854V201H206.31V193.488H198.965V201H196.422ZM210.5 201L215.516 184.2H218.54L223.556 201H220.796L219.668 196.968H214.388L213.26 201H210.5ZM216.956 187.8L214.964 194.928H219.092L217.1 187.8H216.956ZM225.443 201V184.2H227.939L234.971 196.512V184.2H237.395V201H234.899L227.867 188.688V201H225.443ZM244.537 201V186.48H240.025V184.2H251.593V186.48H247.081V201H244.537Z" fill="#397745"/>
<path fill-rule="evenodd" clip-rule="evenodd" d="M119.994 114.934C112.469 117.223 106.152 122.98 103.996 129.513C102.799 133.139 103.077 143.237 104.496 147.668C105.047 149.389 104.603 150.155 102.345 151.378C100.78 152.226 99.9129 152.938 100.417 152.96C101.837 153.022 113.967 146.171 119.143 142.384C121.697 140.515 124.061 137.894 124.396 136.56C125.571 131.877 133 132.546 133 137.335C133 140.482 131.164 142 127.359 142C125.576 142 123.837 142.454 123.494 143.01C123.151 143.565 119.524 145.856 115.435 148.1C111.346 150.345 108 152.567 108 153.039C108 154.489 114.276 158.68 118.5 160.051C123.458 161.66 133.103 161.686 138.763 160.106C148.21 157.469 154.251 148.545 154.186 137.324C154.121 126.044 148.693 118.518 138.386 115.416C133.388 113.911 124.151 113.67 119.994 114.934ZM58.9999 118.392C58.9999 121.216 59.4379 121.893 61.6179 122.44C63.4369 122.897 64.8379 122.552 66.2119 121.308C68.1259 119.576 68.2659 119.609 70.5949 122.315C73.0459 125.166 73.7299 128.431 72.0879 129.446C71.5859 129.756 72.1169 132.236 73.2669 134.958C75.3279 139.838 75.3329 140.035 73.6179 148.951C71.8459 158.162 72.0019 160 74.5589 160C75.6859 160 75.9999 158.363 75.9999 152.5V145H87.9999H99.9999V139V133H87.9999C78.1119 133 75.9999 132.741 75.9999 131.531C75.9999 130.334 78.2689 130.01 88.2499 129.781L100.5 129.5L100.794 122.25L101.088 115H80.0439H58.9999V118.392ZM157.75 115.552C157.338 115.982 157 126.158 157 138.167V160H166H175V154.945V149.89L179.75 150.195C184.295 150.487 184.608 150.705 187 155.247L189.5 159.994L197.763 159.997L206.025 160L202.518 153.036L199.011 146.072L201.506 142.397C204.934 137.345 205.052 127.856 201.747 122.952C197.417 116.527 194.743 115.736 175.637 115.228C166.212 114.977 158.162 115.123 157.75 115.552ZM209.667 115.667C209.3 116.033 209 126.158 209 138.167V160H230H251V153.531V147.062L238.75 146.781C228.653 146.549 226.5 146.236 226.5 145C226.5 143.768 228.597 143.45 238.25 143.218L250 142.937V137.468V132H237.917C228.695 132 225.932 131.704 226.248 130.75C226.543 129.863 230.193 129.419 238.832 129.219L251 128.938V121.969V115H230.667C219.483 115 210.033 115.3 209.667 115.667ZM65.6669 123.667C65.2999 124.033 64.9999 124.798 64.9999 125.367C64.9999 125.993 65.4659 125.934 66.1829 125.217C66.8339 124.566 67.1339 123.801 66.8499 123.517C66.5659 123.233 66.0329 123.3 65.6669 123.667ZM59.2259 127.125C59.9419 129.016 52.7759 136.598 51.1959 135.621C50.6549 135.287 49.4889 136.819 48.6059 139.027C45.2549 147.403 47.5249 155.123 54.2829 158.33C59.3729 160.746 61.9999 160.527 61.9999 157.688C61.9999 156.416 62.8969 153.519 63.9939 151.249C65.2149 148.722 66.0389 144.825 66.1209 141.194C66.2549 135.285 64.9229 132.173 60.0559 127.027C58.7649 125.662 58.6769 125.672 59.2259 127.125ZM184.435 129.975C186.212 130.651 187 131.693 187 133.368C187 136.227 185.387 137 179.418 137H175V133C175 129.11 175.094 129 178.435 129C180.324 129 183.024 129.439 184.435 129.975ZM67.1359 152.905C64.4829 159.073 64.4729 160 67.0589 160C68.1909 160 68.9049 159.655 68.6439 159.234C68.3839 158.812 68.5829 156.263 69.0859 153.568C69.5899 150.873 69.8379 148.504 69.6369 148.304C69.4369 148.103 68.3109 150.174 67.1359 152.905ZM94.9999 154.5C93.6249 155.286 92.9499 155.929 93.4999 155.929C94.0499 155.929 95.6249 155.286 96.9999 154.5C98.3749 153.714 99.0499 153.071 98.4999 153.071C97.9499 153.071 96.3749 153.714 94.9999 154.5Z" fill="#3B7744"/>
</svg>
