<?xml version="1.0" encoding="UTF-8"?>
<!-- Generator: visioncortex VTracer 0.6.3 -->
<svg version="1.1" xmlns="http://www.w3.org/2000/svg" width="625" height="625">
<path d="M0 0 C206.25 0 412.5 0 625 0 C625 206.25 625 412.5 625 625 C418.75 625 212.5 625 0 625 C0 418.75 0 212.5 0 0 Z " fill="#96B89D" transform="translate(0,0)"/>
<path d="M0 0 C1.78 0.01 1.78 0.01 3.6 0.02 C17.34 0.3 28.05 3.5 38.75 12.5 C39.72 13.28 39.72 13.28 40.7 14.08 C48.05 20.65 53.12 31.22 53.97 41.02 C54.62 56.39 54.1 70.24 43.75 82.5 C33.13 93.52 21.79 99.31 6.35 99.93 C4.17 99.96 1.99 99.96 -0.19 99.94 C-1.33 99.93 -2.47 99.92 -3.64 99.91 C-18.89 99.62 -31.16 95.05 -42.07 84.11 C-43.25 82.5 -43.25 82.5 -43.25 79.5 C-41.71 78.76 -41.71 78.76 -40.14 78 C-29.97 73.04 -20.23 68.02 -11.69 60.5 C-9.15 58.45 -7.88 57.54 -4.61 57.32 C-1.94 57.62 -1.94 57.62 0.49 58.13 C2.96 58.53 4.43 58.4 6.75 57.5 C8.82 53.88 9.35 50.61 8.75 46.5 C6.29 43.17 4.88 41.69 0.75 41 C-2.83 41.6 -4.52 42.07 -7.25 44.5 C-7.66 45.89 -8.01 47.29 -8.33 48.7 C-10.24 54.69 -14.13 57.08 -19.25 60.38 C-20.14 60.97 -21.03 61.56 -21.94 62.17 C-24.69 63.99 -27.46 65.75 -30.25 67.5 C-31.08 68.02 -31.92 68.55 -32.77 69.09 C-42.93 75.4 -53.25 80.56 -64.43 84.8 C-67.78 86.09 -71.07 87.54 -74.37 88.97 C-76.25 89.5 -76.25 89.5 -79.25 88.5 C-78.62 88.24 -78 87.98 -77.35 87.71 C-74.53 86.52 -71.7 85.32 -68.88 84.12 C-67.89 83.71 -66.91 83.3 -65.89 82.88 C-64.48 82.28 -64.48 82.28 -63.04 81.66 C-62.17 81.3 -61.3 80.93 -60.4 80.55 C-58.11 79.58 -58.11 79.58 -56.25 77.5 C-53.93 76.78 -51.6 76.11 -49.25 75.5 C-49.93 73.67 -49.93 73.67 -50.62 71.81 C-55.45 57.28 -56.12 41.6 -49.89 27.4 C-47.26 22.37 -44.61 18.22 -40.25 14.5 C-39.74 14.02 -39.23 13.54 -38.7 13.05 C-27.49 2.82 -14.9 -0.08 0 0 Z " fill="#3A7645" transform="translate(267.25,237.5)"/>
<path d="M0 0 C11.18 -0.06 22.36 -0.12 33.88 -0.19 C37.39 -0.21 40.9 -0.24 44.52 -0.27 C48.85 -0.28 48.85 -0.28 50.89 -0.29 C52.29 -0.29 53.7 -0.3 55.1 -0.32 C67.59 -0.45 78.2 0.64 88 9 C96.59 18.38 97.49 28.42 97.28 40.72 C96.96 47.99 95.12 54.35 89.69 59.38 C88.36 60.67 88.36 60.67 87 62 C87.19 66.59 89.62 70.33 91.81 74.25 C100 89.23 100 89.23 100 93 C88.78 93 77.56 93 66 93 C64.37 89.91 62.74 86.81 61.06 83.62 C60.55 82.65 60.04 81.68 59.51 80.67 C59.1 79.91 58.7 79.14 58.29 78.35 C57.87 77.57 57.46 76.78 57.03 75.97 C56.34 74.65 55.66 73.33 55 72 C48.4 71.67 41.8 71.34 35 71 C35 78.26 35 85.52 35 93 C23.45 93 11.9 93 0 93 C0 62.31 0 31.62 0 0 Z " fill="#3A7644" transform="translate(328,241)"/>
<path d="M0 0 C28.71 0 57.42 0 87 0 C87 9.24 87 18.48 87 28 C61.75 28.5 61.75 28.5 36 29 C35.67 30.98 35.34 32.96 35 35 C51.5 35 68 35 85 35 C85 42.59 85 50.18 85 58 C68.5 58 52 58 35 58 C35.5 60.97 35.5 60.97 36 64 C52.83 64.33 69.66 64.66 87 65 C87 74.24 87 83.48 87 93 C58.29 93 29.58 93 0 93 C0 62.31 0 31.62 0 0 Z " fill="#3A7645" transform="translate(436,241)"/>
<path d="M0 0 C29.04 0 58.08 0 88 0 C88 9.57 88 19.14 88 29 C62.75 29.5 62.75 29.5 37 30 C36.67 32.31 36.34 34.62 36 37 C52.5 37 69 37 86 37 C86 45.25 86 53.5 86 62 C69.5 62 53 62 36 62 C36 72.23 36 82.46 36 93 C33.69 93 31.38 93 29 93 C25.98 86.97 28.67 78.46 29.94 72.19 C30.12 71.25 30.3 70.31 30.49 69.34 C31.18 65.81 31.86 62.42 33 59 C33.84 48.36 29.98 39.24 25 30 C26.65 29.34 28.3 28.68 30 28 C29.4 26.27 28.8 24.54 28.19 22.81 C27.85 21.85 27.51 20.89 27.17 19.89 C25.14 14.56 25.14 14.56 21 11 C21 10.34 21 9.68 21 9 C16.41 10.94 14.19 12.49 12 17 C11.28 16.69 10.56 16.38 9.81 16.06 C7.18 15.07 4.79 14.38 2 14 C1.01 14.5 1.01 14.5 0 15 C0 10.05 0 5.1 0 0 Z " fill="#3B7646" transform="translate(122,241)"/>
<path d="M0 0 C0.36 0.78 0.36 0.78 0.73 1.57 C2.32 4.86 3.71 7.67 6.12 10.44 C11.7 18.06 10.36 28.89 9.36 37.83 C8.52 42.94 6.39 47.46 4 52 C3.62 52.77 3.23 53.53 2.84 54.32 C2.56 54.87 2.29 55.43 2 56 C1.34 56 0.68 56 0 56 C0 59.63 0 63.26 0 67 C-9.12 67.65 -15.29 66.06 -22.3 60.02 C-28.02 54.12 -30.91 48.32 -31.05 40.05 C-30.5 30.46 -28.12 22.12 -23 14 C-22.34 14.33 -21.68 14.66 -21 15 C-21 15.66 -21 16.32 -21 17 C-20.01 17 -19.02 17 -18 17 C-17.93 16.43 -17.85 15.86 -17.78 15.27 C-16.72 12.19 -15.01 10.86 -12.56 8.75 C-11.76 8.04 -10.96 7.34 -10.13 6.61 C-8 5 -8 5 -6 5 C-6 4.34 -6 3.68 -6 3 C-2.54 0 -2.54 0 0 0 Z " fill="#3B7645" transform="translate(128,267)"/>
<path d="M0 0 C3.3 0 6.6 0 10 0 C10 4.95 10 9.9 10 15 C14.29 15 18.58 15 23 15 C23 10.71 23 6.42 23 2 C24.98 2 26.96 2 29 2 C29 13.55 29 25.1 29 37 C27.35 37 25.7 37 24 37 C24 31.72 24 26.44 24 21 C19.05 21 14.1 21 9 21 C9 26.28 9 31.56 9 37 C6.69 37 4.38 37 2 37 C1.34 35.02 0.68 33.04 0 31 C-0.66 31 -1.32 31 -2 31 C-2.64 31.8 -3.28 32.61 -3.94 33.44 C-6 36 -6 36 -9 37 C-13.78 37.49 -17.7 37.75 -21.94 35.31 C-26.57 30.11 -27.5 26.34 -27.44 19.56 C-27.46 18.82 -27.48 18.09 -27.5 17.33 C-27.49 10.88 -25.17 7.36 -20.81 2.62 C-16.81 0.31 -13.51 -0 -9 1 C-4.43 3.41 -1.89 6.59 -0.06 11.38 C0.29 12.57 0.64 13.77 1 15 C1.03 13.06 1.05 11.13 1.06 9.19 C1.07 8.11 1.09 7.03 1.1 5.92 C1.14 2.93 1.14 2.93 0 0 Z " fill="#92B79A" transform="translate(406,382)"/>
<path d="M0 0 C16 0 16 0 21 3 C23.47 5.47 23.35 6.4 23.44 9.81 C23.39 13.48 23.16 15.52 20.5 18.12 C19.68 18.74 18.85 19.36 18 20 C19.6 25.2 21.74 30.07 24 35 C22.02 35 20.04 35 18 35 C17.56 34.07 17.13 33.15 16.68 32.19 C16.08 30.98 15.48 29.77 14.88 28.56 C14.45 27.65 14.45 27.65 14.02 26.71 C13.04 24.67 13.04 24.67 11 22 C9.02 21.67 7.04 21.34 5 21 C5 25.62 5 30.24 5 35 C3.35 35 1.7 35 0 35 C0 23.45 0 11.9 0 0 Z " fill="#3E7748" transform="translate(351,384)"/>
<path d="M0 0 C1.98 0 3.96 0 6 0 C8.31 4.62 10.62 9.24 13 14 C15.31 9.38 17.62 4.76 20 0 C21.98 0 23.96 0 26 0 C26 11.55 26 23.1 26 35 C24.35 35 22.7 35 21 35 C20.67 27.74 20.34 20.48 20 13 C18.68 15.97 17.36 18.94 16 22 C14.35 22 12.7 22 11 22 C9.68 19.36 8.36 16.72 7 14 C6.67 20.93 6.34 27.86 6 35 C4.02 35 2.04 35 0 35 C0 23.45 0 11.9 0 0 Z " fill="#407A4A" transform="translate(289,384)"/>
<path d="M0 0 C1.65 0 3.3 0 5 0 C7.06 2.53 7.06 2.53 9 5.94 C9.64 7.04 10.28 8.14 10.94 9.28 C11.96 11.12 11.96 11.12 13 13 C14.65 15.97 16.3 18.94 18 22 C18.33 14.74 18.66 7.48 19 0 C20.98 0 22.96 0 25 0 C25 11.55 25 23.1 25 35 C23.02 35 21.04 35 19 35 C14.71 27.41 10.42 19.82 6 12 C5.67 19.59 5.34 27.18 5 35 C3.35 35 1.7 35 0 35 C0 23.45 0 11.9 0 0 Z " fill="#417B4B" transform="translate(470,384)"/>
<path d="M0 0 C1.13 0.02 2.27 0.04 3.44 0.06 C4.87 4.72 6.29 9.39 7.71 14.05 C8.19 15.64 8.68 17.23 9.17 18.81 C9.86 21.09 10.56 23.37 11.25 25.65 C11.58 26.72 11.58 26.72 11.91 27.8 C13.44 32.83 13.44 32.83 13.44 35.06 C11.46 35.06 9.48 35.06 7.44 35.06 C6.78 32.09 6.12 29.12 5.44 26.06 C1.81 26.39 -1.82 26.72 -5.56 27.06 C-6.55 29.7 -7.54 32.34 -8.56 35.06 C-10.21 35.06 -11.86 35.06 -13.56 35.06 C-12.98 30.39 -12.09 26.02 -10.75 21.51 C-10.4 20.32 -10.04 19.13 -9.68 17.9 C-9.31 16.67 -8.94 15.45 -8.56 14.19 C-8.01 12.32 -8.01 12.32 -7.45 10.41 C-4.36 0.08 -4.36 0.08 0 0 Z " fill="#3E7849" transform="translate(452.5625,383.9375)"/>
<path d="M0 0 C1.65 0 3.3 0 5 0 C5 4.62 5 9.24 5 14 C10.28 14 15.56 14 21 14 C21 9.38 21 4.76 21 0 C22.65 0 24.3 0 26 0 C26 11.55 26 23.1 26 35 C24.35 35 22.7 35 21 35 C21 29.72 21 24.44 21 19 C16.05 19 11.1 19 6 19 C6 24.28 6 29.56 6 35 C4.02 35 2.04 35 0 35 C0 23.45 0 11.9 0 0 Z " fill="#3E7848" transform="translate(409,384)"/>
<path d="M0 0 C0.96 -0.04 1.91 -0.07 2.89 -0.11 C7.61 -0.17 9.99 -0.16 13.93 2.64 C15.8 5.45 16.33 6.33 15.69 9.56 C14.75 13.38 14.75 13.38 12.75 15.38 C9.8 16.37 7.08 16.49 3.98 16.47 C3.09 16.47 2.21 16.47 1.29 16.46 C0.37 16.45 -0.55 16.45 -1.5 16.44 C-2.44 16.43 -3.37 16.43 -4.34 16.42 C-6.64 16.41 -8.95 16.4 -11.25 16.38 C-11.28 13.9 -11.3 11.42 -11.31 8.94 C-11.33 7.88 -11.33 7.88 -11.34 6.79 C-11.35 4.99 -11.3 3.18 -11.25 1.38 C-8.88 -0.99 -3.17 0.05 0 0 Z " fill="#92B498" transform="translate(374.25,269.625)"/>
<path d="M0 0 C7.26 0 14.52 0 22 0 C22 1.32 22 2.64 22 4 C14.08 4.5 14.08 4.5 6 5 C5.67 8.3 5.34 11.6 5 15 C10.28 15 15.56 15 21 15 C21 16.32 21 17.64 21 19 C15.72 19 10.44 19 5 19 C5 22.63 5 26.26 5 30 C10.94 30 16.88 30 23 30 C23 31.65 23 33.3 23 35 C15.41 35 7.82 35 0 35 C0 23.45 0 11.9 0 0 Z " fill="#3D7748" transform="translate(321,384)"/>
<path d="M0 0 C2.89 1.57 5.02 3.37 7 6 C7.94 9.38 7.94 9.38 8 12 C6.02 12 4.04 12 2 12 C1.67 10.35 1.34 8.7 1 7 C-1.97 6.67 -4.94 6.34 -8 6 C-12.53 10.96 -12.41 15.31 -12.34 21.88 C-12.01 24.94 -11.29 27.22 -10 30 C-6.95 30.29 -4.04 30.46 -1 30 C0.72 27.56 0.72 27.56 2 25 C5.19 24.69 5.19 24.69 8 25 C7.5 29.4 6.03 31.79 3 35 C-1.34 36.45 -5.46 36.52 -10 36 C-13.97 33.72 -16.02 31.08 -18 27 C-18.45 24.18 -18.46 21.42 -18.44 18.56 C-18.46 17.82 -18.48 17.09 -18.5 16.33 C-18.49 9.88 -16.17 6.36 -11.81 1.62 C-7.81 -0.69 -4.51 -1.02 0 0 Z " fill="#3E7849" transform="translate(397,383)"/>
<path d="M0 0 C7.92 0 15.84 0 24 0 C24 1.65 24 3.3 24 5 C21.03 5 18.06 5 15 5 C15 14.9 15 24.8 15 35 C13.02 35 11.04 35 9 35 C9 25.1 9 15.2 9 5 C6.03 5 3.06 5 0 5 C0 3.35 0 1.7 0 0 Z " fill="#437C4D" transform="translate(500,384)"/>
<path d="M0 0 C0.33 0 0.66 0 1 0 C1 3.63 1 7.26 1 11 C2.32 10.67 3.64 10.34 5 10 C5.33 10.33 5.66 10.66 6 11 C5.85 17.52 4.77 23.74 3 30 C2.34 29.01 1.68 28.02 1 27 C0.34 27 -0.32 27 -1 27 C-1.33 28.65 -1.66 30.3 -2 32 C-4.97 32 -7.94 32 -11 32 C-11.33 30.35 -11.66 28.7 -12 27 C-11.34 27 -10.68 27 -10 27 C-9.83 26.37 -9.66 25.74 -9.48 25.09 C-8.04 19.99 -6.39 15.41 -3.77 10.79 C-2.74 8.71 -2.74 8.71 -3 5 C-2.34 4.67 -1.68 4.34 -1 4 C-0.35 1.98 -0.35 1.98 0 0 Z " fill="#8FB096" transform="translate(146,302)"/>
<path d="M0 0 C16 0 16 0 18 1 C18 1.99 18 2.98 18 4 C13.71 4 9.42 4 5 4 C5 8.29 5 12.58 5 17 C6.98 17 8.96 17 11 17 C10.67 17.66 10.34 18.32 10 19 C8.02 19.33 6.04 19.66 4 20 C4 24.29 4 28.58 4 33 C3.01 33 2.02 33 1 33 C0.67 22.11 0.34 11.22 0 0 Z " fill="#397544" transform="translate(351,384)"/>
<path d="M0 0 C8.18 -0.36 8.18 -0.36 11.56 1.12 C13 3 13 3 13.44 6 C13 9 13 9 11.8 10.68 C9.37 12.46 7.79 12.3 4.81 12.19 C3.22 12.13 1.64 12.06 0 12 C0 8.04 0 4.08 0 0 Z " fill="#8FB596" transform="translate(356,388)"/>
<path d="M0 0 C0.33 0 0.66 0 1 0 C0.67 3.33 0.34 6.67 0 10 C-0.08 10.83 -0.17 11.67 -0.25 12.53 C-0.34 13.3 -0.42 14.08 -0.5 14.88 C-0.57 15.57 -0.64 16.27 -0.72 16.99 C-1 19 -1 19 -1.66 21.07 C-2.29 23.32 -2.29 23.32 0 26 C-2.97 26 -5.94 26 -9 26 C-9.33 24.35 -9.66 22.7 -10 21 C-9.34 21 -8.68 21 -8 21 C-7.84 20.41 -7.68 19.81 -7.52 19.2 C-5.63 12.48 -3.03 6.29 0 0 Z " fill="#487350" transform="translate(144,308)"/>
<path d="M0 0 C7.59 0 15.18 0 23 0 C23 2.31 23 4.62 23 7 C17.72 7 12.44 7 7 7 C7.33 9.31 7.66 11.62 8 14 C12.29 14.33 16.58 14.66 21 15 C21 15.33 21 15.66 21 16 C15.72 16 10.44 16 5 16 C4.9 8.29 4.9 8.29 5 6 C6 5 6 5 9.6 4.9 C11.09 4.91 12.57 4.92 14.06 4.94 C14.82 4.94 15.58 4.95 16.36 4.95 C18.24 4.96 20.12 4.98 22 5 C22 3.68 22 2.36 22 1 C14.74 1 7.48 1 0 1 C0 0.67 0 0.34 0 0 Z " fill="#7AA783" transform="translate(321,383)"/>
<path d="M0 0 C6.6 0 13.2 0 20 0 C22.31 4.62 24.62 9.24 27 14 C26.34 14 25.68 14 25 14 C24.78 13.22 24.55 12.44 24.32 11.63 C22.91 8.02 21.77 5.75 19 3 C13.16 1.24 7.02 1.87 1 2 C1 8.6 1 15.2 1 22 C0.67 22 0.34 22 0 22 C0 14.74 0 7.48 0 0 Z " fill="#81A487" transform="translate(363,312)"/>
<path d="M0 0 C0.66 0 1.32 0 2 0 C2.51 1.58 3.01 3.17 3.5 4.75 C3.78 5.63 4.06 6.51 4.34 7.42 C5 10 5 10 5 14 C2.36 14 -0.28 14 -3 14 C-2.69 12.42 -2.38 10.83 -2.06 9.25 C-1.8 7.93 -1.8 7.93 -1.54 6.58 C-1.08 4.37 -0.57 2.18 0 0 Z " fill="#8AB392" transform="translate(451,392)"/>
<path d="M0 0 C-1.69 3.38 -5.57 4.05 -8.94 5.38 C-10.09 5.84 -10.09 5.84 -11.27 6.31 C-12.81 6.93 -14.35 7.54 -15.89 8.15 C-17.68 8.87 -19.47 9.62 -21.25 10.38 C-22.55 10.94 -22.55 10.94 -23.88 11.5 C-24.61 11.82 -25.35 12.14 -26.12 12.47 C-28 13 -28 13 -31 12 C-30.37 11.74 -29.75 11.48 -29.1 11.21 C-26.28 10.02 -23.45 8.82 -20.62 7.62 C-19.15 7.01 -19.15 7.01 -17.64 6.38 C-16.7 5.98 -15.76 5.58 -14.79 5.16 C-13.92 4.8 -13.05 4.43 -12.15 4.05 C-9.86 3.08 -9.86 3.08 -8 1 C-3.53 -1.18 -3.53 -1.18 0 0 Z " fill="#5B7A64" transform="translate(219,314)"/>
<path d="M0 0 C0 2 0 2 -2.5 4.62 C-3.32 5.41 -4.15 6.19 -5 7 C-4.34 7 -3.68 7 -3 7 C-3.33 8.32 -3.66 9.64 -4 11 C-5.65 11.33 -7.3 11.66 -9 12 C-8.69 11.4 -8.38 10.8 -8.06 10.19 C-6.9 7.91 -6.9 7.91 -6 5 C-6.66 4.67 -7.32 4.34 -8 4 C-3.38 0 -3.38 0 0 0 Z " fill="#8BB092" transform="translate(143,250)"/>
<path d="M0 0 C1.94 0.56 1.94 0.56 4 2 C4.75 5.62 4.75 5.62 5 9 C4.01 9.5 4.01 9.5 3 10 C2.69 8.91 2.38 7.81 2.06 6.69 C1.42 4.45 0.74 2.21 0 0 Z " fill="#7EA285" transform="translate(385,271)"/>
<path d="M0 0 C0.99 0 1.98 0 3 0 C2.67 1.32 2.34 2.64 2 4 C0.35 4.33 -1.3 4.66 -3 5 C-1.12 1.12 -1.12 1.12 0 0 Z " fill="#52785C" transform="translate(137,257)"/>
</svg>
