<svg width="300" height="300" viewBox="0 0 300 300" fill="none" xmlns="http://www.w3.org/2000/svg">
<path fill-rule="evenodd" clip-rule="evenodd" d="M0 150V300H150H300V150V0H150H0V150ZM172.435 71.509C186.386 75.552 195.796 80.943 206.367 90.947C217.146 101.148 224.081 112.596 228.628 127.693C232.168 139.444 232.408 158.254 229.173 170.249C222.569 194.728 205.293 214.655 182.005 224.655C170.76 229.483 159.915 231.343 146.604 230.726C133.885 230.137 126.594 228.396 116.089 223.441C98.068 214.941 85.029 201.873 76.48 183.744C71.676 173.558 69.927 166.186 69.29 153.448C68.386 135.335 72.39 120.318 82.084 105.469C101.742 75.355 138.296 61.616 172.435 71.509ZM158.808 96.75C154.977 99.635 150.929 103.892 148.5 107.591C145.009 112.907 143.825 113.916 139.198 115.521C131.535 118.179 121.96 127.25 117.766 135.824C114.652 142.188 114.5 143.037 114.507 154C114.514 164.769 114.705 165.879 117.507 171.465C121.176 178.777 129.293 187.101 136.134 190.568C138.947 191.993 144.342 193.804 148.124 194.593C154.08 195.835 155.913 195.836 161.825 194.604C174.373 191.987 179.947 187.691 175.54 184.033C174.248 182.961 173.09 183.118 168.741 184.956C151.712 192.154 133.118 185.142 124.885 168.417C119.362 157.2 120.153 145.151 127.099 134.664C129.917 130.41 138.749 123 141.002 123C141.551 123 142 125.424 142 128.386C142 136.107 146.049 143.571 151.921 146.677C167.806 155.077 184.629 138.124 176.143 122.267C173.656 117.621 163.381 112 157.374 112C156.068 112 155 111.641 155 111.203C155 110.184 161.387 104.126 166.25 100.533C170.094 97.693 170.919 95.319 168.8 93.2C166.851 91.251 165.449 91.749 158.808 96.75ZM163.961 121.48C167.751 123.44 171 127.689 171 130.685C171 137.779 163.899 143.112 157.337 140.946C152.363 139.304 150.008 134.961 150.004 127.417C150.002 124.071 150.3 121.033 150.667 120.667C151.905 119.428 161.079 119.989 163.961 121.48Z" fill="#017BFF"/>
</svg>
