<svg xmlns="http://www.w3.org/2000/svg" width="300" height="300" viewBox="0 0 300 300" version="1.1"><path d="M 130.920 71.010 C 90.465 80.964, 63.521 121.246, 70.058 162 C 74.767 191.356, 95.776 216.643, 123.306 226.088 C 138.111 231.168, 149.442 232.098, 164.510 229.470 C 193.324 224.446, 217.404 203.641, 227.290 175.229 C 229.935 167.627, 230.387 164.751, 230.786 152.950 C 231.174 141.472, 230.921 138.109, 229.136 130.950 C 224.915 114.027, 214.594 97.468, 201.725 86.974 C 193.835 80.540, 179.798 73.558, 169.590 70.990 C 159.144 68.362, 141.646 68.371, 130.920 71.010 M 159.818 95.413 C 154.517 99.460, 146 108.885, 146 110.703 C 146 111.383, 142.649 113.488, 138.553 115.380 C 125.794 121.275, 117.930 130.493, 114.533 143.535 C 108.467 166.824, 123.738 190.317, 148.004 195.025 C 157.032 196.776, 170.315 194.419, 175.250 190.190 C 177.442 188.311, 177.530 184.140, 175.394 183.321 C 174.511 182.982, 170.664 183.729, 166.846 184.981 C 149.786 190.573, 132.540 183.721, 124.888 168.309 C 122.848 164.201, 122.501 162.043, 122.509 153.500 C 122.519 142.274, 123.919 138.416, 130.718 130.890 C 133.756 127.528, 138.673 124, 140.322 124 C 140.553 124, 141.051 126.326, 141.428 129.168 C 143.196 142.496, 149.451 149, 160.500 149 C 168.911 149, 174.233 145.474, 177.452 137.768 C 182.213 126.375, 174.181 114.220, 160.669 112.368 C 158.101 112.016, 156 111.376, 156 110.945 C 156 110.514, 159.188 107.252, 163.085 103.696 C 168.641 98.625, 170.097 96.720, 169.835 94.865 C 169.297 91.065, 165.221 91.288, 159.818 95.413 M 150.336 121.567 C 150.005 122.429, 149.986 125.912, 150.294 129.307 C 150.773 134.583, 151.303 135.881, 153.943 138.240 C 158.129 141.980, 162.894 141.960, 167.121 138.184 C 169.746 135.838, 170.273 134.637, 170.273 130.999 C 170.273 127.519, 169.736 126.170, 167.635 124.362 C 162.887 120.278, 151.534 118.444, 150.336 121.567" stroke="none" fill="#f9fafc" fill-rule="evenodd"/><path d="M 0 150.003 L 0 300.006 150.250 299.753 L 300.500 299.500 300.753 149.750 L 301.007 -0 150.503 -0 L 0 0 0 150.003 M 0.487 150.500 C 0.487 233, 0.605 266.602, 0.750 225.172 C 0.894 183.741, 0.894 116.241, 0.750 75.172 C 0.605 34.102, 0.487 68, 0.487 150.500 M 130.920 71.010 C 90.465 80.964, 63.521 121.246, 70.058 162 C 74.767 191.356, 95.776 216.643, 123.306 226.088 C 138.111 231.168, 149.442 232.098, 164.510 229.470 C 193.324 224.446, 217.404 203.641, 227.290 175.229 C 229.935 167.627, 230.387 164.751, 230.786 152.950 C 231.174 141.472, 230.921 138.109, 229.136 130.950 C 224.915 114.027, 214.594 97.468, 201.725 86.974 C 193.835 80.540, 179.798 73.558, 169.590 70.990 C 159.144 68.362, 141.646 68.371, 130.920 71.010 M 159.818 95.413 C 154.517 99.460, 146 108.885, 146 110.703 C 146 111.383, 142.649 113.488, 138.553 115.380 C 125.794 121.275, 117.930 130.493, 114.533 143.535 C 108.467 166.824, 123.738 190.317, 148.004 195.025 C 157.032 196.776, 170.315 194.419, 175.250 190.190 C 177.442 188.311, 177.530 184.140, 175.394 183.321 C 174.511 182.982, 170.664 183.729, 166.846 184.981 C 149.786 190.573, 132.540 183.721, 124.888 168.309 C 122.848 164.201, 122.501 162.043, 122.509 153.500 C 122.519 142.274, 123.919 138.416, 130.718 130.890 C 133.756 127.528, 138.673 124, 140.322 124 C 140.553 124, 141.051 126.326, 141.428 129.168 C 143.196 142.496, 149.451 149, 160.500 149 C 168.911 149, 174.233 145.474, 177.452 137.768 C 182.213 126.375, 174.181 114.220, 160.669 112.368 C 158.101 112.016, 156 111.376, 156 110.945 C 156 110.514, 159.188 107.252, 163.085 103.696 C 168.641 98.625, 170.097 96.720, 169.835 94.865 C 169.297 91.065, 165.221 91.288, 159.818 95.413 M 150.336 121.567 C 150.005 122.429, 149.986 125.912, 150.294 129.307 C 150.773 134.583, 151.303 135.881, 153.943 138.240 C 158.129 141.980, 162.894 141.960, 167.121 138.184 C 169.746 135.838, 170.273 134.637, 170.273 130.999 C 170.273 127.519, 169.736 126.170, 167.635 124.362 C 162.887 120.278, 151.534 118.444, 150.336 121.567" stroke="none" fill="#047cfc" fill-rule="evenodd"/></svg>