<?xml version="1.0" encoding="UTF-8"?>
<!-- Generator: visioncortex VTracer 0.6.3 -->
<svg version="1.1" xmlns="http://www.w3.org/2000/svg" width="300" height="300">
<path d="M0 0 C99 0 198 0 300 0 C300 99 300 198 300 300 C201 300 102 300 0 300 C0 201 0 102 0 0 Z " fill="#017BFF" transform="translate(0,0)"/>
<path d="M0 0 C15.01 13.05 26.33 30.64 29.12 50.62 C29.39 54.63 29.41 58.61 29.38 62.62 C29.38 63.64 29.39 64.66 29.4 65.7 C29.34 87.51 20.28 106.21 5.12 121.62 C4.44 122.32 3.75 123.02 3.04 123.75 C-7.2 133.5 -19.44 138.86 -32.88 142.62 C-34.13 142.99 -34.13 142.99 -35.41 143.37 C-54.34 148.08 -75.02 143.76 -91.88 134.62 C-95.78 132.21 -99.34 129.55 -102.88 126.62 C-103.73 125.95 -104.58 125.27 -105.45 124.57 C-117.76 114.25 -126.78 99.14 -130.88 83.62 C-131.18 82.49 -131.18 82.49 -131.5 81.33 C-136.66 58.37 -131.19 37.05 -118.93 17.53 C-106.83 0.11 -89.21 -12.4 -68.31 -16.75 C-43.26 -19.95 -20.1 -15.75 0 0 Z " fill="#FDFDFF" transform="translate(201.875,86.375)"/>
<path d="M0 0 C1 1 1 1 1.46 3.18 C0.74 7.55 -2.16 9.41 -5.44 12.19 C-9.77 15.64 -9.77 15.64 -13 20 C-11.82 20.1 -10.65 20.21 -9.44 20.31 C-3.04 21.13 2.35 23.48 7 28 C10.47 33.02 10.98 38.08 10 44 C7.58 49.82 3.67 54.16 -2 57 C-8.32 57.5 -15.5 57.84 -20.66 53.66 C-25.84 48.26 -27.81 41.74 -28.19 34.38 C-28.13 33.59 -28.06 32.81 -28 32 C-35.85 36.32 -41.88 41.69 -45.3 50.16 C-47.86 60.53 -46.96 70.19 -41.7 79.48 C-38.73 83.88 -36.27 87.23 -31.5 89.69 C-30.75 90.08 -29.99 90.48 -29.22 90.89 C-28.12 91.44 -28.12 91.44 -27 92 C-26.14 92.56 -26.14 92.56 -25.27 93.12 C-21.66 94.52 -18.08 94.33 -14.25 94.31 C-13.48 94.33 -12.7 94.34 -11.91 94.36 C-7.78 94.36 -4.51 93.98 -0.67 92.42 C2.99 91 3.56 90.86 7 92 C7.69 94.31 7.69 94.31 8 97 C4.36 101.48 -0.81 102.68 -6.29 103.48 C-20.58 104.8 -30.82 101.74 -42.42 93.22 C-50.68 86.1 -55.38 76.14 -56.31 65.43 C-56.71 53.29 -53.78 43.42 -46 34 C-40.27 28.02 -34.24 23.55 -26.25 21.19 C-23.45 19.71 -22.83 17.95 -21.43 15.21 C-19.47 12.19 -17.04 9.72 -14.5 7.19 C-14.02 6.71 -13.55 6.23 -13.06 5.73 C-8.87 1.62 -5.95 -0.48 0 0 Z " fill="#0B80FF" transform="translate(169,92)"/>
<path d="M0 0 C5.15 0.07 10.58 1.43 14.73 4.55 C16.9 7.45 16.53 10.3 16.4 13.8 C16 16.25 16 16.25 14.06 19.38 C10.51 21.55 8.27 22.03 4.16 21.81 C0.29 20.8 -0.92 18.57 -3 15.25 C-4.04 12.13 -4.13 9.89 -4.12 6.62 C-4.13 5.64 -4.13 4.66 -4.13 3.65 C-3.94 0.08 -3.63 0.3 0 0 Z " fill="#F6FAFF" transform="translate(154,119.75)"/>
</svg>
