<svg width="300" height="300" viewBox="0 0 300 300" fill="none" xmlns="http://www.w3.org/2000/svg">
<rect x="28" y="113.5" width="75" height="72" fill="#FED000"/>
<path fill-rule="evenodd" clip-rule="evenodd" d="M0 150V300H150H300V150V0H150H0V150ZM55.019 120.814L57.259 122.628L55.628 132.196C54.731 137.458 53.717 143.166 53.374 144.882L52.75 148H57.757H62.764L64.477 138.484C66.286 128.44 67.842 126.18 72.035 127.511C74.773 128.38 75.393 131.92 74.105 139.318C72.537 148.324 72.395 148 77.912 148H82.824L83.528 143.75C84.556 137.547 85.648 136 89 136C94.217 136 94.408 138.062 91.018 157.753C89.338 167.514 87.723 176.264 87.43 177.199C86.349 180.648 79.653 180.634 78.557 177.18C78.257 176.236 78.684 171.646 79.505 166.981C80.326 162.317 80.998 158.387 80.999 158.25C80.999 158.113 78.78 158 76.067 158C70.462 158 70.784 157.502 68.957 169C68.301 173.125 67.352 177.287 66.847 178.25C65.706 180.426 61.668 180.525 59.571 178.429C57.67 176.527 57.675 177.359 59.5 167C60.323 162.325 60.998 158.387 60.999 158.25C60.999 158.113 58.75 158 56 158C53.25 158 50.999 158.338 50.997 158.75C50.984 161.792 47.639 177.73 46.802 178.738C45.476 180.336 41.771 180.371 40.2 178.8C38.41 177.01 38.628 174.754 43.213 147.561C46.351 128.949 47.881 122.119 49.213 120.787C51.451 118.549 52.226 118.553 55.019 120.814ZM117.656 137.25C117.348 138.488 116.792 141.412 116.42 143.75L115.744 148H123.353C130.837 148 130.972 147.955 131.581 145.25C133.914 134.893 133.852 135 137.539 135C139.645 135 140.997 135.489 140.993 136.25C140.988 136.938 139.413 144.441 137.493 152.925C135.572 161.408 134 168.496 134 168.675C134 168.854 132.367 169 130.372 169H126.744L127.346 165.25C127.676 163.188 128.24 160.037 128.598 158.25L129.25 155H121.664H114.077L113.053 158.804C112.489 160.897 111.741 164.047 111.389 165.804C110.803 168.733 110.429 169 106.906 169C104.282 169 103.191 168.604 103.468 167.75C103.692 167.063 105.281 159.975 107 152C108.719 144.025 110.308 136.938 110.532 136.25C110.758 135.553 112.548 135 114.577 135C117.851 135 118.16 135.226 117.656 137.25ZM169.133 151C170.641 159.525 171.902 167.063 171.937 167.75C171.977 168.549 170.58 169 168.066 169C164.519 169 164.102 168.73 163.816 166.25C163.508 163.568 163.324 163.493 156.348 163.208C149.382 162.924 149.139 162.996 147.03 165.958C145.245 168.464 144.171 169 140.932 169C138.769 169 137 168.802 137 168.56C137 168.319 139.597 163.931 142.77 158.81C145.944 153.69 150.508 146.215 152.914 142.201L157.289 134.902L161.84 135.201L166.392 135.5L169.133 151ZM199.8 136.463C205.62 139.618 205.653 139.676 203.107 142.386L200.766 144.878L197.148 142.939C192.942 140.685 190.085 140.486 187.637 142.276C184.815 144.34 186.667 146.611 193.081 148.949C199.705 151.364 202.351 154.345 202.212 159.233C202.017 166.111 195.417 170.423 186.594 169.438C181.307 168.847 177.143 167.082 175.03 164.537C173.907 163.183 174.046 162.58 175.942 160.561L178.178 158.181L181.729 160.591C186.175 163.608 192.457 163.883 193.933 161.126C194.696 159.7 194.506 158.863 193.139 157.626C192.151 156.732 191.036 156 190.66 156C188.066 156 180.681 151.283 179.401 148.809C177.323 144.791 179.07 139.538 183.353 136.926C187.183 134.591 195.893 134.346 199.8 136.463ZM235.813 138.25C235.509 141.411 235.359 141.508 230.339 141.799L225.179 142.098L223.612 149.299C222.751 153.26 221.465 159.2 220.755 162.5C219.478 168.439 219.427 168.503 215.732 168.81C213.68 168.981 212.008 168.756 212.018 168.31C212.028 167.865 213.302 161.762 214.85 154.75L217.664 142H212.715C208.071 142 207.804 141.861 208.37 139.75C208.701 138.512 208.979 136.938 208.986 136.25C208.997 135.312 212.387 135 222.563 135H236.127L235.813 138.25ZM258.885 149.25C260.147 157.088 261.421 164.738 261.715 166.25C262.228 168.886 262.082 169 258.191 169C254.507 169 254.104 168.746 253.816 166.25C253.507 163.563 253.334 163.493 246.229 163.206C239.053 162.915 238.935 162.951 237.229 165.949C235.726 168.59 234.939 168.988 231.215 168.994C226.142 169.001 225.671 170.4 236.745 152.546C240.823 145.971 244.81 139.334 245.606 137.796C246.882 135.328 247.61 135 251.82 135H256.588L258.885 149.25ZM246.329 149.59L242.157 157H247.59H253.024L252.394 152.75C250.676 141.163 250.982 141.322 246.329 149.59ZM156.306 149.5L152.175 156.5L157.198 156.806C159.961 156.974 162.393 156.94 162.603 156.731C162.813 156.521 162.411 153.233 161.711 149.424L160.438 142.5L156.306 149.5Z" fill="#004AAD"/>
</svg>
