<?xml version="1.0" encoding="UTF-8"?>
<!-- Generator: visioncortex VTracer 0.6.3 -->
<svg version="1.1" xmlns="http://www.w3.org/2000/svg" width="512" height="512">
<path d="M0 0 C168.96 0 337.92 0 512 0 C512 168.96 512 337.92 512 512 C343.04 512 174.08 512 0 512 C0 343.04 0 174.08 0 0 Z " fill="#095F5A" transform="translate(0,0)"/>
<path d="M0 0 C0.93 -0.03 1.87 -0.05 2.83 -0.08 C10.52 0.79 15.07 6.17 20.21 11.42 C21 12.21 21.79 13.01 22.61 13.83 C25.12 16.36 27.62 18.9 30.12 21.44 C31.83 23.16 33.54 24.88 35.25 26.6 C39.42 30.81 43.59 35.03 47.75 39.25 C50.86 38.08 53.6 36.85 56.34 34.98 C57 34.53 57.67 34.08 58.35 33.62 C59.05 33.14 59.74 32.66 60.46 32.16 C61.2 31.67 61.93 31.17 62.69 30.65 C65.02 29.07 67.36 27.47 69.69 25.88 C71.25 24.81 72.82 23.74 74.38 22.68 C77.26 20.72 80.15 18.75 83.03 16.78 C83.66 16.36 84.3 15.93 84.95 15.49 C86.62 14.34 88.25 13.14 89.87 11.93 C93.12 10.03 94.91 9.82 98.62 10 C99.59 10.04 100.56 10.07 101.55 10.11 C102.64 10.18 102.64 10.18 103.75 10.25 C109.59 28.2 115.35 46.16 120.75 64.25 C122.75 61.24 123.7 58.73 124.81 55.31 C125.15 54.27 125.5 53.23 125.85 52.16 C126.15 51.2 126.44 50.24 126.75 49.25 C126.99 48.53 127.23 47.8 127.48 47.06 C127.96 43.84 125.57 41.75 123.75 39.25 C121.11 34.79 120.9 30.32 121.75 25.25 C125.05 21.69 127.63 20.33 132.44 20 C136.88 20.06 139.85 21.14 143.75 23.25 C146.23 26.97 145.92 28.46 145.38 32.72 C144.67 35.57 143.51 37.71 142.06 40.25 C140.16 43.79 139.39 45.85 140.25 49.81 C140.71 51.3 141.21 52.78 141.75 54.25 C142.29 55.87 142.83 57.5 143.38 59.12 C143.64 59.84 143.9 60.56 144.16 61.3 C144.75 63.25 144.75 63.25 144.75 66.25 C145.41 66.25 146.07 66.25 146.75 66.25 C146.86 65.65 146.96 65.06 147.07 64.44 C148.3 57.96 149.99 51.75 151.97 45.46 C152.28 44.48 152.58 43.5 152.9 42.49 C153.54 40.43 154.18 38.38 154.83 36.32 C155.82 33.17 156.8 30.01 157.78 26.85 C158.41 24.84 159.03 22.84 159.66 20.84 C159.95 19.89 160.25 18.94 160.55 17.97 C160.83 17.1 161.1 16.23 161.38 15.34 C161.74 14.19 161.74 14.19 162.11 13.01 C162.75 11.25 162.75 11.25 163.75 10.25 C173.37 8.84 180.48 9.63 188.45 15.48 C189.76 16.47 191.07 17.47 192.37 18.47 C196.87 21.83 201.53 24.95 206.18 28.09 C207.85 29.23 209.52 30.38 211.18 31.53 C212.22 32.25 213.25 32.96 214.32 33.69 C215.25 34.33 216.17 34.96 217.13 35.62 C219.62 37.17 222.02 38.2 224.75 39.25 C225.19 38.81 225.63 38.36 226.08 37.9 C230.67 33.27 235.26 28.65 239.86 24.03 C241.57 22.31 243.28 20.58 244.99 18.86 C247.45 16.37 249.92 13.89 252.39 11.42 C253.15 10.65 253.91 9.87 254.69 9.08 C255.42 8.36 256.14 7.64 256.88 6.9 C257.51 6.26 258.13 5.63 258.78 4.98 C263.82 0.55 267.55 -0.25 274.1 -0.03 C280.48 0.64 283.67 3.9 287.55 8.63 C289.83 11.71 290.03 14.02 290.19 17.81 C290.25 18.8 290.31 19.8 290.37 20.82 C288.62 30.51 279.72 37.71 273.02 44.34 C271.99 45.38 270.95 46.41 269.92 47.45 C267.76 49.6 265.6 51.75 263.44 53.9 C260.67 56.65 257.91 59.41 255.15 62.17 C253.02 64.3 250.89 66.43 248.75 68.56 C247.73 69.57 246.71 70.59 245.69 71.61 C244.28 73.03 242.85 74.44 241.42 75.85 C240.21 77.06 240.21 77.06 238.97 78.29 C234.41 82.32 230.3 83.04 224.29 82.95 C216.84 81.48 210.86 76.56 204.75 72.25 C202.42 70.63 200.08 69.02 197.75 67.4 C196.6 66.61 195.46 65.82 194.31 65.02 C193.47 64.44 192.62 63.85 191.75 63.25 C191.75 63.88 191.74 64.51 191.74 65.15 C191.7 71.69 191.63 78.23 191.54 84.76 C191.51 87.2 191.49 89.64 191.48 92.08 C191.46 95.59 191.41 99.1 191.36 102.61 C191.36 103.7 191.36 104.78 191.36 105.91 C191.21 113.49 191.21 113.49 188.84 117.42 C184.78 120.98 180.86 120.42 175.7 120.44 C174.76 120.45 173.82 120.46 172.85 120.47 C169.74 120.49 166.63 120.51 163.51 120.52 C162.45 120.53 161.39 120.53 160.29 120.54 C154.67 120.57 149.05 120.59 143.43 120.6 C137.62 120.62 131.81 120.66 126 120.71 C121.54 120.75 117.07 120.76 112.61 120.76 C110.47 120.77 108.32 120.79 106.18 120.81 C103.18 120.84 100.19 120.84 97.19 120.83 C96.3 120.85 95.42 120.87 94.51 120.88 C90.2 120.84 88.28 120.63 84.7 118.05 C82.54 114.94 82.14 113.55 82.18 109.82 C82.18 108.76 82.18 107.7 82.18 106.6 C82.21 105.47 82.24 104.34 82.26 103.17 C82.27 102 82.28 100.83 82.28 99.62 C82.31 95.89 82.37 92.17 82.44 88.44 C82.46 85.91 82.49 83.38 82.51 80.85 C82.56 74.65 82.64 68.45 82.75 62.25 C82.06 62.71 81.38 63.18 80.67 63.66 C78.1 65.4 75.52 67.13 72.94 68.87 C71.28 69.98 69.63 71.09 67.98 72.21 C50.27 84.09 50.27 84.09 40.75 82.25 C30.15 78.11 20.8 66.03 13.55 57.53 C10.5 54 7.25 50.7 3.92 47.43 C3.4 46.92 2.88 46.41 2.35 45.88 C0.18 43.75 -1.98 41.63 -4.15 39.52 C-5.76 37.95 -7.36 36.38 -8.95 34.8 C-9.44 34.34 -9.93 33.87 -10.43 33.38 C-14.77 29.08 -17.67 24.59 -17.75 18.38 C-17.58 12.94 -15.73 9.35 -12.25 5.25 C-8.07 1.46 -5.6 0.09 0 0 Z " fill="#FDFEFD" transform="translate(119.25,291.75)"/>
<path d="M0 0 C0.97 0.38 0.97 0.38 1.96 0.77 C13.86 5.91 20.98 15.97 26.09 27.46 C30.17 38.81 28.91 51.17 24 62 C17.61 74.99 8.94 81.33 -4 87 C-12.91 89.97 -26.01 89.38 -34.69 86 C-47.16 79.66 -55.32 70.35 -60.27 57.32 C-63.92 45.65 -63.09 32.44 -57.78 21.49 C-51.26 9.66 -42.29 2.99 -30 -2 C-20.6 -4.59 -8.82 -4.1 0 0 Z " fill="#FDFEFD" transform="translate(273,194)"/>
<path d="M0 0 C2.21 0.94 4.22 1.98 6.27 3.24 C7.15 3.77 8.04 4.31 8.95 4.86 C15.78 11.87 18.78 19.51 18.67 29.16 C17.74 36.19 14.16 42.91 8.95 47.74 C2.57 52.46 -3.8 55.08 -11.83 54.75 C-19.11 53.47 -25.73 50.12 -30.3 44.24 C-31.55 42.36 -31.55 42.36 -32.73 40.24 C-33.27 39.32 -33.8 38.39 -34.36 37.44 C-37.17 30.9 -36.83 23.07 -34.89 16.29 C-28.55 2.32 -14.84 -4.13 0 0 Z " fill="#FCFDFD" transform="translate(336.734375,136.76171875)"/>
<path d="M0 0 C6.24 4.71 9.56 10.69 12 18 C12.97 27.72 10.9 34.62 4.88 42.25 C-0.9 48.37 -7.08 51.25 -15.5 51.62 C-24 51.25 -30.15 48.33 -35.94 42.12 C-42.44 33.83 -43.14 26.48 -42 16 C-39.88 8.6 -35.41 3.17 -29 -1 C-19.45 -5.83 -9.23 -5.26 0 0 Z " fill="#FCFDFD" transform="translate(271,103)"/>
<path d="M0 0 C2.21 0.94 4.22 1.98 6.27 3.24 C7.15 3.77 8.04 4.31 8.95 4.86 C14.69 10.76 18.32 17.62 18.58 25.86 C18.45 34.29 15.15 41.4 9.37 47.48 C3.25 52.6 -3.92 55.2 -11.9 54.78 C-19.14 53.39 -25.73 50.12 -30.3 44.24 C-31.55 42.36 -31.55 42.36 -32.73 40.24 C-33.27 39.32 -33.8 38.39 -34.36 37.44 C-37.17 30.9 -36.83 23.07 -34.89 16.29 C-28.55 2.32 -14.84 -4.13 0 0 Z " fill="#FCFDFD" transform="translate(192.734375,136.76171875)"/>
<path d="M0 0 C7.97 4.95 12.19 10.5 15.13 19.32 C16 28 14.65 34.44 9.55 41.52 C5.07 46.99 0.23 50.93 -6.87 52.32 C-16.02 53.06 -22.79 52.01 -30.05 46.26 C-36.61 40.04 -39.15 33.85 -39.49 24.82 C-39.17 16.29 -36.9 9.85 -30.62 3.95 C-21.31 -3.11 -10.76 -5.49 0 0 Z " fill="#FCFDFD" transform="translate(375.8671875,211.67578125)"/>
<path d="M0 0 C7.04 4.94 11.29 10.3 13.75 18.5 C14.59 26.89 14.08 33.59 9.15 40.65 C3.48 47.47 -1.89 51.18 -10.73 52.37 C-18.49 52.74 -25.34 51.17 -31.3 46.01 C-38.81 38.08 -40.68 31.35 -40.41 20.48 C-39.6 13.63 -36.77 8.33 -31.75 3.62 C-22.16 -3.66 -10.98 -5.74 0 0 Z " fill="#FCFDFD" transform="translate(161,212)"/>
</svg>
