<svg width="300" height="300" viewBox="0 0 300 300" fill="none" xmlns="http://www.w3.org/2000/svg">
<rect width="300" height="300" fill="#142328"/>
<path d="M94.985 58H205.707C225.584 58 241.692 74.1394 241.692 94.0556V204.995C241.692 224.911 225.584 241.05 205.707 241.05H94.985C75.1078 241.05 59 224.911 59 204.995V94.0556C58.9859 74.1394 75.1078 58 94.985 58Z" fill="#142328"/>
<path d="M146.643 180.666C146.7 175.418 142.507 171.104 137.269 171.048C132.032 170.991 127.726 175.192 127.67 180.44C127.613 185.688 131.806 190.002 137.043 190.058C137.086 190.058 137.114 190.058 137.156 190.058C142.323 190.129 146.573 185.985 146.643 180.808C146.643 180.751 146.643 180.709 146.643 180.666ZM154.394 165.305V196.127H146.502V193.354C143.693 195.632 140.177 196.862 136.549 196.82C127.641 197.06 120.216 190.016 119.976 181.076C119.736 172.151 126.766 164.711 135.688 164.47C135.971 164.456 136.267 164.456 136.549 164.47C140.192 164.456 143.721 165.715 146.544 168.035V165.291H154.394V165.305ZM180.595 189.097H174.666C172.859 189.097 171.687 188.304 171.687 186.678V172.25H180.595V165.305H171.716V156.521H163.739V165.305H157.754V172.278H163.753V188.658C163.753 192.788 166.732 196.07 172.083 196.07H180.624L180.595 189.097ZM198.581 196.862C207.7 196.862 212.839 192.59 212.839 186.678C212.839 182.477 209.804 179.337 203.423 177.993L196.689 176.635C192.778 175.928 191.55 175.206 191.55 173.792C191.55 171.925 193.428 170.793 196.901 170.793C200.656 170.793 203.423 171.797 204.214 175.206H212.105C211.667 168.799 206.952 164.527 197.395 164.527C189.15 164.527 183.348 167.879 183.348 174.358C183.348 178.841 186.539 181.769 193.414 183.198L200.938 184.91C203.903 185.475 204.694 186.253 204.694 187.47C204.694 189.394 202.421 190.61 198.821 190.61C194.261 190.61 191.649 189.62 190.647 186.197H182.671C183.856 192.59 188.727 196.862 198.581 196.862ZM88 154.385H117.759V161.5H96.0327V171.698H117.18V178.544H96.0327V188.814H117.759V195.943H88V154.385Z" fill="#06C167"/>
<path d="M212.162 118.286V112.699H210.044C207.037 112.571 204.199 114.099 202.632 116.687V112.939H196.576V143.28H202.689V126.023C202.689 121.327 205.597 118.286 209.592 118.286H212.162ZM168.229 125.358C169.259 120.153 174.299 116.758 179.494 117.791C183.306 118.54 186.285 121.539 187.047 125.358H168.229ZM177.8 112.345C169.118 112.274 162.017 119.262 161.946 127.961C161.946 128.018 161.946 128.06 161.946 128.117C161.946 137.169 169.09 143.945 178.351 143.945C183.574 144.044 188.515 141.639 191.663 137.466L187.245 134.241C185.198 137.113 181.88 138.782 178.365 138.711C173.283 138.782 168.92 135.104 168.116 130.083H193.146V128.102C193.146 119.064 186.623 112.345 177.715 112.345M142.888 138.711C137.086 138.669 132.399 133.93 132.441 128.102C132.484 122.275 137.213 117.593 143.029 117.635C148.803 117.678 153.476 122.374 153.476 128.173C153.462 134.001 148.733 138.725 142.916 138.711C142.902 138.711 142.888 138.711 142.888 138.711ZM126.3 143.28H132.357V139.461C135.279 142.389 139.246 144.03 143.368 144.03C152.107 144.27 159.391 137.353 159.617 128.598C159.857 119.842 152.954 112.543 144.215 112.317C143.933 112.303 143.65 112.303 143.368 112.317C139.26 112.317 135.307 113.957 132.413 116.886V101.623H126.3V143.28ZM104.757 138.4C110.63 138.4 115.162 133.93 115.162 127.339V101.623H121.514V143.28H115.218V139.404C112.268 142.389 108.23 144.03 104.037 143.973C94.9175 143.973 88 137.481 88 127.664V101.623H94.4092V127.339C94.4092 134.058 98.8844 138.4 104.828 138.4" fill="#F6F0EA"/>
</svg>
