<svg width="300" height="300" viewBox="0 0 300 300" fill="none" xmlns="http://www.w3.org/2000/svg">
<rect width="300" height="300" fill="#262729"/>
<path d="M163.324 75.5504C162.666 75.4009 161.619 75.1916 160.692 75.0719C159.346 74.8925 158 74.7728 156.594 74.7728C153.663 74.7728 151.54 75.2813 149.117 76.0589C147.383 76.6271 145.648 77.3449 143.166 78.8403C132.189 85.5098 127.524 98.0412 127.524 109.825V150.111H141.042V110.393C141.042 107.881 142.179 105.608 144.003 103.963L149.446 110.333L154.83 103.963C156.624 105.608 157.761 107.851 157.761 110.363V150.111H171.249V110.932C171.249 87.4538 148.43 87.2146 141.431 90.1754C151.181 79.0198 178.337 85.8986 178.337 111.021V150.141H191.856V110.543C191.856 93.4055 181.298 79.6478 163.324 75.5504ZM150.374 74.3242C151.061 74.3242 150.374 74.5037 149.775 74.6233C135.031 77.5543 120.346 91.0129 120.346 109.915C120.346 128.009 120.346 150.111 120.346 150.111H106.857V109.945C106.857 89.6371 123.127 74.3242 146.396 74.3242H150.374Z" fill="#0075BC"/>
<path d="M211.265 162.883L198.494 183.489L211.265 204.096H195.593L190.987 196.17L186.381 204.096H170.709L183.48 183.489L170.709 162.883H186.381L190.987 170.808L195.593 162.883H211.265ZM109.069 205.92L132.068 162.853H116.815L109.398 177.478L101.682 162.853H86.4287L109.069 205.92ZM151.389 160.311C164.249 160.311 174.687 170.539 174.687 183.16C174.687 195.781 164.249 206.04 151.389 206.04C138.528 206.04 128.061 195.811 128.061 183.16C128.091 170.539 138.528 160.311 151.389 160.311ZM151.389 191.834C156.264 191.834 160.212 187.946 160.212 183.16C160.212 178.375 156.264 174.487 151.389 174.487C146.514 174.487 142.536 178.375 142.536 183.16C142.536 187.946 146.514 191.834 151.389 191.834ZM193.589 222.609H195.294V223.865H193.589V222.609ZM191.256 222.609H192.961V223.865H191.256V222.609ZM182.852 216.089H181.147V214.803H182.852V216.089ZM211.265 216.418V218.452C211.265 219.588 210.607 220.635 209.53 221.084C209.171 221.233 208.752 221.323 208.274 221.323H206.689V220.366C206.42 220.964 206.031 221.353 205.283 221.323H172.324H172.295C171.966 221.323 171.666 221.233 171.367 221.113C170.919 221.712 170.201 222.1 169.304 222.1C168.406 222.1 167.689 221.712 167.24 221.113C166.881 221.233 166.522 221.323 166.163 221.323H155.277V214.205H156.922V220.067H165.924C166.133 220.067 166.343 220.067 166.522 220.007L166.821 219.947C166.821 219.887 166.821 219.798 166.821 219.798C166.821 218.541 167.868 217.495 169.304 217.495C170.739 217.495 171.786 218.511 171.786 219.768C171.786 219.768 171.786 219.887 171.786 219.947L172.085 220.007C172.295 220.037 172.474 220.067 172.683 220.067H181.177V217.315H182.822V220.067H192.482V217.315H194.127V220.067H202.322H202.831C203.668 220.067 203.728 219.558 203.728 218.571V217.196H205.313V220.097H205.433C206.27 220.097 206.629 219.259 206.719 218.541C206.719 218.392 206.748 217.196 206.719 217.196H208.304V220.097C208.722 220.127 209.111 219.887 209.321 219.558C209.829 218.84 209.679 217.913 209.679 217.106V216.448H211.265V216.418ZM170.261 219.827C170.261 219.289 169.872 218.84 169.304 218.84C168.735 218.84 168.347 219.289 168.347 219.827V219.857C168.347 220.396 168.735 220.844 169.304 220.844C169.902 220.814 170.261 220.366 170.261 219.827ZM95.0721 218.482C95.0721 216.807 96.3881 215.491 98.1526 215.491C99.349 215.491 100.127 215.969 100.635 216.687L99.4088 217.614C99.0798 217.196 98.691 216.956 98.1227 216.956C97.3152 216.956 96.7171 217.644 96.7171 218.482V218.511C96.7171 219.379 97.2853 220.037 98.1227 220.037C98.7209 220.037 99.1097 219.768 99.4387 219.349L100.665 220.186C100.127 220.934 99.3789 221.472 98.0629 221.472C96.418 221.472 95.0721 220.216 95.0721 218.482ZM143.254 219.439C143.822 219.887 144.48 220.126 145.168 220.126C145.617 220.126 145.826 219.977 145.826 219.738V219.708C145.826 219.469 145.647 219.349 144.839 219.169C143.583 218.9 142.626 218.541 142.626 217.375C142.626 216.298 143.493 215.551 144.899 215.551C145.886 215.551 146.663 215.82 147.321 216.298L146.514 217.405C145.975 217.046 145.377 216.837 144.869 216.837C144.48 216.837 144.271 217.016 144.271 217.225C144.271 217.495 144.48 217.614 145.288 217.794C146.633 218.093 147.471 218.511 147.471 219.588C147.471 220.755 146.514 221.472 145.108 221.472C144.061 221.472 143.074 221.143 142.357 220.515L143.254 219.439ZM133.923 221.353H135.627L136.046 220.336H138.319L138.738 221.353H140.472L137.99 215.58H136.435L133.923 221.353ZM136.525 219.08L137.183 217.465L137.841 219.08H136.525ZM125.399 215.61H127.104L128.509 217.824L129.915 215.61H131.62V221.323H130.005V218.033L128.509 220.276H128.479L126.984 218.063V221.353H125.399V215.61ZM117.563 215.61H122.288V216.956H119.178V217.824H121.989V219.08H119.178V219.977H122.318V221.323H117.563V215.61ZM108.74 215.61H110.265L112.688 218.631V215.61H114.303V221.323H112.867L110.355 218.182V221.323H108.74V215.61ZM103.805 221.353H105.45V215.64H103.805V221.353Z" fill="white"/>
</svg>
