<svg width="300" height="300" viewBox="0 0 300 300" fill="none" xmlns="http://www.w3.org/2000/svg">
<rect width="300" height="300" fill="#E13744"/>
<rect width="300" height="300" fill="#E13744"/>
<rect width="300" height="118" transform="matrix(1 0 0 -1 0 221)" fill="#E13744"/>
<rect width="300" height="118" transform="matrix(1 0 0 -1 0 221)" fill="white"/>
<path fill-rule="evenodd" clip-rule="evenodd" d="M5.80682 0.188338C3.4623 0.742723 1.33244 2.5895 0.47705 4.8098C0.0104956 6.02039 0.000749684 9.01772 0.000749684 150.021C0.000749684 291.33 0.00974592 294.019 0.479799 295.24C1.10929 296.874 2.82257 298.676 4.44539 299.41L5.74834 300H149.688C290.657 300 293.653 299.99 294.862 299.523C297.094 298.662 299.49 295.78 299.498 293.948C299.499 293.647 299.613 293.33 299.75 293.245C299.916 293.142 300 245.038 300 149.741C300 54.2386 299.917 6.44318 299.75 6.54625C299.611 6.63206 299.499 6.44418 299.498 6.12321C299.494 5.1803 298.381 3.11112 297.344 2.11793C296.812 1.60882 295.814 0.933355 295.127 0.616886L293.878 0.0417362L150.313 0.00370984C67.2346 -0.0183054 6.35159 0.0594986 5.80682 0.188338ZM0 150.021C0 228.932 0.0284881 261.214 0.0632235 221.758C0.0979589 182.303 0.0979589 117.739 0.0632235 78.2836C0.0284881 38.8279 0 71.1098 0 150.021ZM226.156 117.828L219.409 120.389L218.445 124.313L217.481 128.238L215.071 128.31L212.662 128.381L212.129 132.719C211.836 135.105 211.541 137.554 211.473 138.16L211.349 139.263H213.567C214.787 139.263 215.785 139.301 215.785 139.347C215.785 139.393 215.328 142.686 214.769 146.665C212.876 160.153 212.767 161.589 213.409 164.622C214.316 168.911 216.765 170.713 222.033 170.969C223.476 171.039 225.5 170.969 226.531 170.813C228.859 170.46 232.744 169.237 234.402 168.336L235.652 167.656L236.451 162.786C236.89 160.108 237.215 157.882 237.173 157.84C237.131 157.798 236.21 158.119 235.126 158.553C231.426 160.036 228.781 160.117 228.099 158.768C227.62 157.819 227.697 156.767 228.904 147.894C229.521 143.354 230.027 139.554 230.028 139.451C230.029 139.348 232.107 139.263 234.648 139.263C239.235 139.263 239.267 139.26 239.386 138.7C239.452 138.391 239.797 136.224 240.153 133.885C240.51 131.546 240.865 129.322 240.942 128.944L241.083 128.256H236.301H231.519L231.646 127.693C231.786 127.073 233.278 115.937 233.278 115.512C233.278 115.366 233.194 115.251 233.091 115.256C232.987 115.262 229.867 116.419 226.156 117.828ZM187.922 126.427C185.889 126.692 181.696 127.636 179.8 128.256C177.336 129.063 173.454 130.812 173.194 131.232C172.933 131.656 175.788 140.076 176.141 139.921C176.298 139.852 177.326 139.4 178.426 138.918C185.021 136.021 192.007 135.62 194.17 138.014C195.082 139.022 195.594 141.996 195.144 143.673C195.016 144.15 194.909 144.181 194.086 143.973C193.582 143.845 191.371 143.679 189.171 143.604C181.013 143.326 175.491 144.975 171.288 148.945C166.62 153.353 165.702 160.954 169.198 166.233C171.306 169.415 175.356 170.873 180.385 170.261C184.599 169.749 187.977 168.128 190.79 165.267L192.291 163.741L192.142 164.949C192.06 165.613 191.836 166.868 191.644 167.736C191.452 168.605 191.296 169.421 191.296 169.55C191.296 169.69 194.056 169.785 198.168 169.785H205.04V167.138C205.04 164.382 205.793 157.218 207.049 148.019C208.161 139.883 208.04 136.266 206.548 133.075C205.082 129.937 201.573 127.512 197.241 126.642C195.457 126.283 189.995 126.157 187.922 126.427ZM261.047 127.07C258.359 127.313 254.947 128.451 252.395 129.955C249.692 131.548 245.828 135.428 244.175 138.21C239.809 145.56 239.007 155.469 242.242 162.098C245.054 167.861 249.922 170.905 256.831 171.22C261.983 171.455 266.025 170.4 269.969 167.788C274.998 164.459 278.757 159.091 280.448 152.824C281.04 150.63 281.105 149.951 281.118 145.768C281.131 141.653 281.069 140.919 280.557 139.15C279.756 136.378 278.459 134.036 276.633 132.064C273.058 128.204 267.65 126.471 261.047 127.07ZM132.396 127.502C127.56 128.53 122.732 132.541 118.921 138.698C118.357 139.609 118.081 139.903 118.171 139.497C118.724 136.99 118.86 128.206 118.351 127.898C118.269 127.848 116.514 128.024 114.453 128.288C112.391 128.552 109.242 128.85 107.456 128.95L104.207 129.131L104.055 133.885C103.972 136.499 103.771 139.595 103.608 140.764C102.735 147.059 99.9966 165.418 99.6902 167.033C99.4945 168.065 99.3341 169.108 99.3341 169.351C99.3341 169.764 99.8059 169.788 106.768 169.726L114.203 169.659L114.395 167.783C114.842 163.404 116.634 151.888 117.11 150.333C118.615 145.412 122.256 140.778 124.961 140.339C126.322 140.117 126.823 140.728 126.823 142.611C126.823 144.106 123.886 164.513 123.205 167.75C123.013 168.663 122.94 169.495 123.044 169.601C123.147 169.706 126.542 169.762 130.587 169.726L137.943 169.659L138.151 167.783C138.738 162.503 140.385 151.854 140.847 150.354C142.652 144.499 147.106 139.529 149.786 140.38C150.998 140.766 150.963 141.555 149.196 154.024C148.289 160.422 147.439 166.332 147.307 167.158C147.176 167.983 147.067 168.912 147.066 169.222L147.064 169.785H153.919C160.233 169.785 160.785 169.75 160.903 169.347C160.974 169.106 162.127 162.436 163.466 154.524C165.747 141.041 165.9 139.911 165.915 136.507C165.931 132.887 165.928 132.869 165.104 131.192C163.764 128.465 161.947 127.456 158.309 127.418C152.983 127.362 147.725 130.991 143.245 137.817L142.191 139.424V136.148C142.191 132.946 142.173 132.835 141.364 131.191C140.462 129.357 139.529 128.487 137.801 127.87C136.438 127.383 133.801 127.203 132.396 127.502ZM76.0226 128.02C65.1622 130.692 57.6406 141.603 58.1831 153.899C58.5674 162.606 62.582 168.226 70.0964 170.575C71.7202 171.082 72.4711 171.159 75.719 171.151C80.0614 171.14 81.4721 170.839 84.9651 169.178C92.0312 165.82 96.9761 158.836 98.3528 150.271C98.4965 149.377 98.6127 147.271 98.6112 145.591C98.6024 136.271 94.0726 129.934 86.0394 128.007C83.2666 127.341 78.758 127.347 76.0226 128.02ZM24.499 130.132C24.3126 131.812 23.2313 138.922 22.9619 140.242L22.7877 141.095L30.3238 140.919C34.4686 140.823 37.8599 140.833 37.8599 140.943C37.8599 141.053 33.4742 145.891 28.114 151.696L18.368 162.248V166.166V170.084L21.3043 169.896C25.1262 169.652 46.7029 169.647 50.1357 169.891L52.7906 170.079L52.9648 168.618C53.0608 167.815 53.5303 165.131 54.0086 162.655C54.4867 160.178 54.9005 158.003 54.9277 157.822C54.9682 157.556 53.4403 157.498 46.8626 157.519L38.7475 157.545L39.3895 156.848C42.3228 153.661 57.5261 137.028 57.8637 136.637C58.2108 136.234 58.329 135.404 58.469 132.384L58.6427 128.631H41.6543H24.6659L24.499 130.132ZM77.9658 139.216C74.4805 140.847 71.9613 148.4 72.8262 154.626C73.1998 157.315 74.0992 158.947 75.5663 159.596C77.5942 160.494 79.4284 159.71 81.0763 157.24C84.4339 152.206 84.7242 141.735 81.5698 139.446C80.6157 138.753 79.1543 138.66 77.9658 139.216ZM260.134 139.099C258.813 139.699 257.113 141.861 256.308 143.966C255.218 146.815 254.925 148.533 254.911 152.147C254.897 155.937 255.314 157.555 256.653 158.895C258.243 160.487 260.39 160.319 262.202 158.461C266.345 154.213 267.313 142.043 263.713 139.476C262.79 138.819 261.136 138.644 260.134 139.099ZM184.361 150.893C181.571 151.677 179.915 152.88 178.945 154.829C177.296 158.143 178.993 161.514 182.699 162.285C187.09 163.197 192.005 159.384 193.646 153.79C194.168 152.01 194.156 151.123 193.607 150.887C193.367 150.784 191.483 150.66 189.421 150.612C186.655 150.547 185.329 150.621 184.361 150.893Z" fill="#E13744"/>
</svg>
